<svg width="512" height="512" viewBox="0 0 512 512" fill="none" xmlns="http://www.w3.org/2000/svg">
<rect width="512" height="512" fill="#E5E5E5"/>
<rect width="512" height="512" fill="white"/>
<path d="M503.129 311.332L475.168 295.188C445.008 277.773 444.98 234.238 475.168 216.812L503.129 200.668C510.301 196.523 512.758 187.352 508.617 180.18L448.375 75.8242C444.238 68.6562 435.059 66.1914 427.883 70.332L399.922 86.4766C369.766 103.887 332.059 82.1523 332.059 47.2891V15C332.059 6.71484 325.344 0 317.059 0H196.57C188.289 0 181.57 6.71484 181.57 15V47.2891C181.57 82.1172 143.898 103.906 113.707 86.4766L85.7461 70.332C78.5781 66.1914 69.3985 68.6484 65.2539 75.8242L5.01174 180.18C0.871117 187.352 3.32815 196.527 10.5 200.668L38.461 216.812C68.6211 234.227 68.6485 277.762 38.461 295.188L10.5039 311.332C3.32815 315.477 0.871117 324.648 5.01174 331.82L65.2539 436.176C69.3906 443.344 78.5703 445.812 85.7461 441.668L113.707 425.523C143.859 408.109 181.57 429.844 181.57 464.711V497C181.57 505.285 188.285 512 196.57 512H317.055C325.34 512 332.055 505.285 332.055 497V464.711C332.055 429.891 369.727 408.09 399.922 425.523L427.883 441.668C435.051 445.809 444.23 443.352 448.371 436.176L508.617 331.82C512.758 324.648 510.301 315.477 503.129 311.332V311.332ZM429.891 408.188L414.922 399.543C364.762 370.578 302.059 406.738 302.059 464.711V482H211.57V464.711C211.57 406.789 148.906 370.555 98.7071 399.543L83.7383 408.188L38.4922 329.812L53.461 321.168C103.617 292.211 103.668 219.82 53.4649 190.832L38.4922 182.188L83.7383 103.812L98.7071 112.457C148.867 141.422 211.57 105.262 211.57 47.2891V30H302.059V47.2891C302.059 105.211 364.719 141.445 414.922 112.457L429.891 103.812L475.137 182.188L460.168 190.832C410.012 219.789 409.961 292.18 460.164 321.168L475.137 329.812L429.891 408.188Z" fill="#F20404"/>
<path d="M256.816 151C198.922 151 151.824 198.102 151.824 256C151.824 313.898 198.922 361 256.816 361C314.707 361 361.805 313.898 361.805 256C361.805 198.102 314.707 151 256.816 151ZM256.816 331C215.465 331 181.824 297.355 181.824 256C181.824 214.645 215.465 181 256.816 181C298.164 181 331.805 214.645 331.805 256C331.805 297.355 298.164 331 256.816 331Z" fill="#F20404"/>
</svg>
