<svg width="512" height="512" viewBox="0 0 512 512" fill="none" xmlns="http://www.w3.org/2000/svg">
<rect width="512" height="512" fill="white"/>
<path d="M505.738 133.047L465.746 55.5353L465.324 54.7736C457.254 41.1407 443.25 33.0001 427.863 33.0001H84.1328C68.75 33.0001 54.7461 41.1368 46.6758 54.7697L46.4531 55.1447L6.2617 133.047C-3.03909 149.145 -1.89846 169.856 9.15623 184.738L221.277 460.332C229.672 471.563 242.32 478 256 478C269.68 478 282.328 471.563 290.723 460.332L502.691 184.942L502.844 184.738C513.898 169.856 515.039 149.145 505.738 133.047ZM439.312 69.7384L476.555 141.926H362.609L290.141 63.0001H427.863C432.426 63.0001 436.68 65.5118 439.312 69.7384ZM256 414.699L176.668 171.922H335.332L256 414.699ZM190.121 141.922L256 70.1798L321.875 141.926H190.121V141.922ZM72.6875 69.7384C75.3203 65.5118 79.5742 63.0001 84.1367 63.0001H221.859L149.391 141.922H35.4414L72.6875 69.7384ZM37.1484 171.922H145.102L224.742 415.649L37.1484 171.922ZM287.258 415.649L366.898 171.922H474.848L287.258 415.649Z" fill="#F10303"/>
</svg>
