<svg width="512" height="512" viewBox="0 0 512 512" fill="none" xmlns="http://www.w3.org/2000/svg">
<path d="M509.773 147.441L364.562 2.22656C363.133 0.800781 361.203 0 359.184 0C357.168 0 355.234 0.800781 353.809 2.22656L139.668 216.367C136.699 219.336 136.699 224.148 139.668 227.117C142.637 230.086 147.449 230.086 150.418 227.117L359.188 18.3516L384.895 44.0625L97.168 331.789C97.793 317.832 94.6133 302.797 86.3008 291.234L132.504 245.035C135.473 242.066 135.473 237.254 132.504 234.285C129.531 231.316 124.719 231.313 121.75 234.285L57.3906 298.645C56.4609 299.574 55.7891 300.73 55.4375 302L0.273427 502.375C-0.363292 504.68 0.128895 507.133 1.55858 509.004C1.76171 509.27 1.98436 509.527 2.22655 509.77C3.67186 511.215 5.61327 511.996 7.60546 511.996C8.27733 511.996 8.95311 511.906 9.62108 511.723L94.3906 488.391C94.4062 488.383 94.4219 488.379 94.4414 488.371L210 456.562C211.27 456.211 212.426 455.539 213.355 454.609L509.773 158.191C512.742 155.223 512.742 150.41 509.773 147.441ZM18.4844 493.512L36.1562 429.32C46.6953 433.328 56.3437 439.562 64.3867 447.605C72.4336 455.652 78.6719 465.305 82.6797 475.84L18.4844 493.512ZM97.3828 471.793C92.6367 458.73 85.0469 446.766 75.1406 436.855C65.2344 426.953 53.2695 419.363 40.2031 414.617L69.5625 307.977L75.3516 302.188C83.2656 314.965 83.625 333.207 79.332 345.895C77.9336 350.027 78.9883 354.52 82.0898 357.621C85.1875 360.719 89.6836 361.773 93.8125 360.375C108.668 355.344 131.148 356.691 143.539 369.082C155.937 381.48 157.281 403.957 152.254 418.809C150.852 422.941 151.906 427.434 155 430.531C158.102 433.633 162.598 434.688 166.742 433.289C179.078 429.113 196.918 429.352 209.66 436.801L204.027 442.438L97.3828 471.793ZM220.676 425.789C208.973 417.594 194.32 414.738 180.898 415.395L410.656 185.637C413.625 182.668 413.625 177.855 410.656 174.887C407.688 171.918 402.875 171.918 399.906 174.887L170.086 404.703C170.828 388.266 166.281 370.324 154.293 358.332C142.305 346.344 124.359 341.797 107.918 342.539L395.645 54.8125L457.812 116.98L417.824 156.965C414.855 159.934 414.855 164.746 417.824 167.715C419.309 169.199 421.254 169.941 423.199 169.941C425.145 169.941 427.094 169.199 428.578 167.715L468.562 127.73L493.648 152.812L220.676 425.789Z" fill="#EF0707"/>
</svg>
