<svg width="602" height="596" viewBox="0 0 602 596" fill="none" xmlns="http://www.w3.org/2000/svg">
<rect width="602" height="596" fill="#E5E5E5"/>
<rect width="602" height="596" fill="white"/>
<path d="M486.778 353.441C448.586 353.441 417.516 384.202 417.516 422.013C417.516 459.817 448.588 490.579 486.778 490.579C524.976 490.579 556.041 459.817 556.041 422.013C556.041 384.202 524.97 353.441 486.778 353.441ZM486.778 452.121C470 452.121 456.355 438.612 456.355 422.006C456.355 405.395 470 391.886 486.778 391.886C503.557 391.886 517.201 405.402 517.201 422.006C517.203 438.611 503.557 452.121 486.778 452.121Z" fill="#E30808"/>
<path d="M387.092 105.421H19.4192C8.69373 105.421 0 114.028 0 124.648V420.725C0 431.343 8.69373 439.95 19.4192 439.95H80.2671V401.499H38.8384V143.873H367.673V420.725H406.511V124.648C406.512 114.028 397.819 105.421 387.092 105.421Z" fill="#E30808"/>
<path d="M436.936 401.499H175.422V439.95H436.936V401.499Z" fill="#E30808"/>
<path d="M127.521 353.441C89.3288 353.441 58.2576 384.202 58.2576 422.013C58.2576 459.817 89.3288 490.579 127.521 490.579C165.712 490.579 196.783 459.817 196.783 422.013C196.782 384.202 165.712 353.441 127.521 353.441ZM127.521 452.121C110.742 452.121 97.0972 438.612 97.0972 422.006C97.0972 405.395 110.742 391.886 127.521 391.886C144.299 391.886 157.944 405.402 157.944 422.006C157.944 438.611 144.292 452.121 127.521 452.121Z" fill="#E30808"/>
<path d="M582.581 264.995H387.092V303.447H563.16V401.498H535.326V439.949H582.58C593.305 439.949 601.999 431.349 601.999 420.724V284.221C602 273.602 593.306 264.995 582.581 264.995Z" fill="#E30808"/>
<path d="M523.863 185.234C520.453 179.094 513.927 175.275 506.845 175.275H387.092V213.727H495.361L539.67 293.488L573.705 274.954L523.863 185.234Z" fill="#E30808"/>
</svg>
